<?xml version="1.0" encoding="UTF-8"?>
<svg xmlns="http://www.w3.org/2000/svg" viewBox="0 0 600 600">
  <defs>
    <style>
      .cls-1 {
        fill: #9e1b31;
      }

      .cls-2 {
        fill: #fff;
      }
    </style>
  </defs>
  <g id="bg">
    <rect class="cls-1" x="-1.91" y="-1.91" width="603.56" height="601.66"/>
  </g>
  <g id="art_140" data-name="art 140">
    <path class="cls-2" d="M161.92,262.78h49.9L146.32,54.21h-56.42L24.4,262.78h48.21l12.89-49.68h63.59l12.83,49.68ZM95,176.46l5.01-19.3c5.8-20.85,11.37-45.25,16.41-67.27h1.28c5.57,21.76,11.14,46.42,16.94,67.27l4.99,19.3h-44.62Z"/>
    <path class="cls-2" d="M397.56,262.78l-47.19-83.42c22.28-10.06,37.14-29.54,37.14-60.2,0-49.59-36.26-64.95-80.5-64.95h-75.12v208.57h47.15v-75.06h25.93l39.82,75.06h52.76ZM279.05,91.65h24.12c24.8,0,38.13,6.89,38.13,27.51s-13.32,31.13-38.13,31.13h-24.12v-58.64Z"/>
    <path class="cls-2" d="M463.1,93.76h-57.41v-39.55h161.97v39.55h-57.41v169.02h-47.15V93.76Z"/>
    <path class="cls-2" d="M69.84,504.82h44.42v-117.58h-38.06v-29.19c21.8-4.14,36.18-9.68,50.42-18.49h34.69v165.26h38.06v37.96H69.84v-37.96Z"/>
    <path class="cls-2" d="M377.92,458.45h-23.45v-118.88h-57.55l-74.19,122.2v32.54h87.87v48.48h43.88v-48.48h23.45v-35.85ZM267.81,458.45l26.67-44.36c5.76-11.6,11.52-22.86,16.64-34.34h1.28c-.64,12.92-1.81,32.61-1.81,45.52v33.18h-42.79Z"/>
    <path class="cls-2" d="M397.3,440.27c0-69.16,29.03-104.55,72.71-104.55s72.7,35.65,72.7,104.55-29.03,106.36-72.7,106.36-72.71-37.2-72.71-106.36ZM498.19,440.27c0-55.45-12.34-68.17-28.19-68.17s-28.19,12.71-28.19,68.17,12.34,69.97,28.19,69.97,28.19-14.52,28.19-69.97Z"/>
  </g>
</svg>